<svg width='13.5' height='17.5' viewBox="0 0 22 28" fill="none" xmlns="http://www.w3.org/2000/svg">
<path d="M21.0371 7.45801C21.2129 7.63379 21.3125 7.87109 21.3125 8.12012V26.1875C21.3125 26.7061 20.8936 27.125 20.375 27.125H1.625C1.10645 27.125 0.6875 26.7061 0.6875 26.1875V1.8125C0.6875 1.29395 1.10645 0.875 1.625 0.875H14.0674C14.3164 0.875 14.5566 0.974609 14.7324 1.15039L21.0371 7.45801ZM19.1504 8.55078L13.6367 3.03711V8.55078H19.1504ZM14.5514 17.6697C14.1066 17.6551 13.6338 17.6894 13.0968 17.7564C12.3849 17.3173 11.9056 16.7141 11.5651 15.8278L11.5965 15.6995L11.6328 15.5478C11.7588 15.0166 11.8265 14.629 11.8467 14.2382C11.8619 13.9432 11.8455 13.671 11.7931 13.4188C11.6964 12.8741 11.3111 12.5557 10.8257 12.536C10.373 12.5176 9.95703 12.7704 9.85068 13.1621C9.67754 13.7955 9.77891 14.629 10.146 16.0505C9.67842 17.1652 9.06055 18.4722 8.646 19.2011C8.09258 19.4864 7.66162 19.746 7.29951 20.0337C6.82197 20.4137 6.52373 20.8042 6.4417 21.2144C6.40186 21.4045 6.46191 21.6529 6.59873 21.8565C6.754 22.0874 6.98779 22.2374 7.26816 22.2591C7.97568 22.3139 8.84521 21.5844 9.80527 19.937C9.90166 19.9048 10.0036 19.8708 10.1281 19.8286L10.4768 19.7108C10.6974 19.6364 10.8573 19.5831 11.0155 19.5318C11.7011 19.3086 12.2196 19.1677 12.6913 19.0874C13.511 19.5263 14.4585 19.814 15.0966 19.814C15.6233 19.814 15.9793 19.5409 16.1079 19.1111C16.2207 18.7338 16.1313 18.2961 15.8888 18.0541C15.638 17.8077 15.1769 17.6899 14.5514 17.6697ZM7.28604 21.432V21.4215L7.28984 21.4115C7.33271 21.3007 7.38773 21.195 7.45391 21.0963C7.5793 20.9035 7.75186 20.7008 7.96572 20.4849C8.08057 20.3691 8.2001 20.2563 8.34043 20.1298C8.37178 20.1017 8.57217 19.9232 8.60967 19.8881L8.93691 19.5834L8.69902 19.9622C8.33809 20.5376 8.01172 20.9519 7.73223 21.222C7.62939 21.3216 7.53887 21.3948 7.46562 21.442C7.44145 21.4581 7.41585 21.4721 7.38916 21.4836C7.37715 21.4886 7.3666 21.4915 7.35605 21.4924C7.34492 21.4938 7.33361 21.4923 7.32324 21.488C7.31222 21.4834 7.3028 21.4756 7.29618 21.4656C7.28956 21.4557 7.28603 21.444 7.28604 21.432ZM10.9757 15.0371L10.9095 15.1543L10.8685 15.026C10.7776 14.738 10.7108 14.3041 10.6924 13.9127C10.6713 13.4674 10.7067 13.2002 10.8474 13.2002C11.0448 13.2002 11.1354 13.5166 11.1424 13.9927C11.1488 14.411 11.0829 14.8464 10.9754 15.0371H10.9757ZM10.8055 16.7498L10.8503 16.6312L10.9115 16.7425C11.254 17.3647 11.6984 17.8839 12.1871 18.2457L12.2926 18.3236L12.164 18.35C11.6855 18.449 11.2399 18.5979 10.6306 18.8437C10.6941 18.8179 9.99717 19.1032 9.8208 19.1709L9.66699 19.2298L9.74902 19.0868C10.1108 18.4569 10.4451 17.7005 10.8052 16.7498H10.8055ZM15.4232 18.984C15.193 19.0748 14.6973 18.9937 13.8245 18.621L13.603 18.5267L13.8433 18.5091C14.5259 18.4584 15.0093 18.4959 15.2911 18.599C15.4112 18.643 15.4912 18.6983 15.5267 18.7616C15.5453 18.7916 15.5516 18.8276 15.5442 18.8621C15.5367 18.8966 15.5162 18.9269 15.4868 18.9465C15.4682 18.9629 15.4466 18.9756 15.4232 18.984Z" fill="black"/>
</svg>
