<svg width="13.5" height="17.5" viewBox="0 0 14 18" fill="none" xmlns="http://www.w3.org/2000/svg">
<path d="M7.875 4.64844V0H0.84375C0.376172 0 0 0.365723 0 0.820312V16.6797C0 17.1343 0.376172 17.5 0.84375 17.5H12.6562C13.1238 17.5 13.5 17.1343 13.5 16.6797V5.46875H8.71875C8.25469 5.46875 7.875 5.09961 7.875 4.64844ZM9.98789 8.28857L7.875 11.4844L9.98789 14.6802C10.1672 14.9536 9.9668 15.3125 9.63281 15.3125H8.40586C8.25117 15.3125 8.10703 15.2305 8.0332 15.0972C7.34414 13.8599 6.75 12.749 6.75 12.749C6.525 13.2549 6.39844 13.4326 5.46328 15.1006C5.38945 15.2339 5.24883 15.3159 5.09414 15.3159H3.86719C3.5332 15.3159 3.33281 14.957 3.51211 14.6836L5.63203 11.4878L3.51211 8.29199C3.3293 8.01855 3.5332 7.65967 3.86719 7.65967H5.09063C5.24531 7.65967 5.38945 7.7417 5.46328 7.875C6.38086 9.54297 6.16641 9.02344 6.75 10.2163C6.75 10.2163 6.96445 9.81641 8.03672 7.875C8.11055 7.7417 8.25469 7.65967 8.40937 7.65967H9.63281C9.9668 7.65625 10.1672 8.01514 9.98789 8.28857ZM13.5 4.1665V4.375H9V0H9.21445C9.43945 0 9.65391 0.0854492 9.81211 0.239258L13.2539 3.58887C13.4121 3.74268 13.5 3.95117 13.5 4.1665Z" fill="black"/>
</svg>
